# Blender 5.1.2
# www.blender.org
mtllib DoorUp.mtl
o DoorUp-col
v 4.559709 1.250000 -0.011354
v 4.559709 0.000000 -0.261354
v 4.559709 1.250000 -0.261354
v 4.559709 1.250000 -0.011354
v 4.559709 0.000000 -0.011354
v 4.559709 0.000000 -0.261354
v 4.435184 1.250000 -0.261354
v 4.435184 0.000000 -0.011354
v 4.435184 1.250000 -0.011354
v 4.435184 1.250000 -0.261354
v 4.435184 0.000000 -0.261354
v 4.435184 0.000000 -0.011354
v 4.435184 1.250000 -0.011354
v 4.559709 0.000000 -0.011354
v 4.559709 1.250000 -0.011354
v 4.435184 1.250000 -0.011354
v 4.435184 0.000000 -0.011354
v 4.559709 0.000000 -0.011354
v 4.559709 1.250000 -0.261354
v 4.435184 0.000000 -0.261354
v 4.435184 1.250000 -0.261354
v 4.559709 1.250000 -0.261354
v 4.559709 0.000000 -0.261354
v 4.435184 0.000000 -0.261354
v 4.559709 0.000000 -0.011354
v 4.435184 0.000000 -0.261354
v 4.559709 0.000000 -0.261354
v 4.559709 0.000000 -0.011354
v 4.435184 0.000000 -0.011354
v 4.435184 0.000000 -0.261354
v 4.559709 1.250000 -0.843934
v 4.559708 0.000000 -1.093934
v 4.559708 1.250000 -1.093934
v 4.559709 1.250000 -0.843934
v 4.559709 0.000000 -0.843934
v 4.559708 0.000000 -1.093934
v 4.435184 1.250000 -1.093934
v 4.435184 0.000000 -0.843934
v 4.435184 1.250000 -0.843934
v 4.435184 1.250000 -1.093934
v 4.435184 0.000000 -1.093934
v 4.435184 0.000000 -0.843934
v 4.435184 1.500000 -0.843934
v 4.559708 1.500000 -1.093934
v 4.435184 1.500000 -1.093934
v 4.435184 1.500000 -0.843934
v 4.559709 1.500000 -0.843934
v 4.559708 1.500000 -1.093934
v 4.435184 1.250000 -0.843934
v 4.559709 0.000000 -0.843934
v 4.559709 1.250000 -0.843934
v 4.435184 1.250000 -0.843934
v 4.435184 0.000000 -0.843934
v 4.559709 0.000000 -0.843934
v 4.559708 1.250000 -1.093934
v 4.435184 0.000000 -1.093934
v 4.435184 1.250000 -1.093934
v 4.559708 1.250000 -1.093934
v 4.559708 0.000000 -1.093934
v 4.435184 0.000000 -1.093934
v 4.559709 0.000000 -0.843934
v 4.435184 0.000000 -1.093934
v 4.559708 0.000000 -1.093934
v 4.559709 0.000000 -0.843934
v 4.435184 0.000000 -0.843934
v 4.435184 0.000000 -1.093934
v 4.435184 1.500000 -0.843934
v 4.435184 1.250000 -1.093934
v 4.435184 1.250000 -0.843934
v 4.435184 1.500000 -0.843934
v 4.435184 1.500000 -1.093934
v 4.435184 1.250000 -1.093934
v 4.435184 1.500000 -1.093934
v 4.559708 1.250000 -1.093934
v 4.435184 1.250000 -1.093934
v 4.435184 1.500000 -1.093934
v 4.559708 1.500000 -1.093934
v 4.559708 1.250000 -1.093934
v 4.559708 1.500000 -1.093934
v 4.559709 1.250000 -0.843934
v 4.559708 1.250000 -1.093934
v 4.559708 1.500000 -1.093934
v 4.559709 1.500000 -0.843934
v 4.559709 1.250000 -0.843934
v 4.559709 1.500000 -0.011354
v 4.435184 1.250000 -0.011354
v 4.559709 1.250000 -0.011354
v 4.559709 1.500000 -0.011354
v 4.435184 1.500000 -0.011354
v 4.435184 1.250000 -0.011354
v 4.559709 1.500000 -0.011354
v 4.559709 1.250000 -0.843934
v 4.559709 1.500000 -0.843934
v 4.559709 1.500000 -0.011354
v 4.559709 1.250000 -0.011354
v 4.559709 1.250000 -0.843934
v 4.559709 1.250000 -0.011354
v 4.435184 1.250000 -0.843934
v 4.559709 1.250000 -0.843934
v 4.559709 1.250000 -0.011354
v 4.435184 1.250000 -0.011354
v 4.435184 1.250000 -0.843934
v 4.435184 1.250000 -0.011354
v 4.435184 1.500000 -0.843934
v 4.435184 1.250000 -0.843934
v 4.435184 1.250000 -0.011354
v 4.435184 1.500000 -0.011354
v 4.435184 1.500000 -0.843934
v 4.435184 1.500000 -0.011354
v 4.559709 1.500000 -0.843934
v 4.435184 1.500000 -0.843934
v 4.435184 1.500000 -0.011354
v 4.559709 1.500000 -0.011354
v 4.559709 1.500000 -0.843934
v 4.432000 0.073281 -0.011765
v 4.435184 0.000000 -0.261354
v 4.432000 0.073281 -0.261765
v 4.432000 0.073281 -0.011765
v 4.435184 0.000000 -0.011354
v 4.435184 0.000000 -0.261354
v 4.404058 0.073281 -0.261765
v 4.404058 0.000823 -0.011765
v 4.404058 0.073281 -0.011765
v 4.404058 0.073281 -0.261765
v 4.404058 0.000823 -0.261765
v 4.404058 0.000823 -0.011765
v 4.404058 0.073281 -0.011765
v 4.432000 0.073281 -0.261765
v 4.404058 0.073281 -0.261765
v 4.404058 0.073281 -0.011765
v 4.432000 0.073281 -0.011765
v 4.432000 0.073281 -0.261765
v 4.404058 0.073281 -0.011765
v 4.435184 0.000000 -0.011354
v 4.432000 0.073281 -0.011765
v 4.404058 0.073281 -0.011765
v 4.404058 0.000823 -0.011765
v 4.435184 0.000000 -0.011354
v 4.432000 0.073281 -0.261765
v 4.404058 0.000823 -0.261765
v 4.404058 0.073281 -0.261765
v 4.432000 0.073281 -0.261765
v 4.435184 0.000000 -0.261354
v 4.404058 0.000823 -0.261765
v 4.435184 0.000000 -0.011354
v 4.404058 0.000823 -0.261765
v 4.435184 0.000000 -0.261354
v 4.435184 0.000000 -0.011354
v 4.404058 0.000823 -0.011765
v 4.404058 0.000823 -0.261765
v 4.559709 0.000000 -0.011354
v 4.559678 0.073281 -0.261765
v 4.559709 0.000000 -0.261354
v 4.559709 0.000000 -0.011354
v 4.559678 0.073281 -0.011765
v 4.559678 0.073281 -0.261765
v 4.587620 0.000823 -0.261765
v 4.587620 0.073281 -0.011765
v 4.587620 0.000823 -0.011765
v 4.587620 0.000823 -0.261765
v 4.587620 0.073281 -0.261765
v 4.587620 0.073281 -0.011765
v 4.559678 0.073281 -0.011765
v 4.587620 0.073281 -0.261765
v 4.559678 0.073281 -0.261765
v 4.559678 0.073281 -0.011765
v 4.587620 0.073281 -0.011765
v 4.587620 0.073281 -0.261765
v 4.587620 0.000823 -0.011765
v 4.559678 0.073281 -0.011765
v 4.559709 0.000000 -0.011354
v 4.587620 0.000823 -0.011765
v 4.587620 0.073281 -0.011765
v 4.559678 0.073281 -0.011765
v 4.559709 0.000000 -0.261354
v 4.587620 0.073281 -0.261765
v 4.587620 0.000823 -0.261765
v 4.559709 0.000000 -0.261354
v 4.559678 0.073281 -0.261765
v 4.587620 0.073281 -0.261765
v 4.587620 0.000823 -0.011765
v 4.559709 0.000000 -0.261354
v 4.587620 0.000823 -0.261765
v 4.587620 0.000823 -0.011765
v 4.559709 0.000000 -0.011354
v 4.559709 0.000000 -0.261354
v 4.432000 0.073281 -0.843934
v 4.435184 0.000000 -1.093934
v 4.432000 0.073281 -1.093934
v 4.432000 0.073281 -0.843934
v 4.435184 0.000000 -0.843934
v 4.435184 0.000000 -1.093934
v 4.404058 0.073281 -1.093934
v 4.404058 0.000823 -0.843934
v 4.404058 0.073281 -0.843934
v 4.404058 0.073281 -1.093934
v 4.404058 0.000823 -1.093934
v 4.404058 0.000823 -0.843934
v 4.404058 0.073281 -0.843934
v 4.432000 0.073281 -1.093934
v 4.404058 0.073281 -1.093934
v 4.404058 0.073281 -0.843934
v 4.432000 0.073281 -0.843934
v 4.432000 0.073281 -1.093934
v 4.404058 0.073281 -0.843934
v 4.435184 0.000000 -0.843934
v 4.432000 0.073281 -0.843934
v 4.404058 0.073281 -0.843934
v 4.404058 0.000823 -0.843934
v 4.435184 0.000000 -0.843934
v 4.432000 0.073281 -1.093934
v 4.404058 0.000823 -1.093934
v 4.404058 0.073281 -1.093934
v 4.432000 0.073281 -1.093934
v 4.435184 0.000000 -1.093934
v 4.404058 0.000823 -1.093934
v 4.435184 0.000000 -0.843934
v 4.404058 0.000823 -1.093934
v 4.435184 0.000000 -1.093934
v 4.435184 0.000000 -0.843934
v 4.404058 0.000823 -0.843934
v 4.404058 0.000823 -1.093934
v 4.559709 0.000000 -0.843934
v 4.559678 0.073281 -1.093934
v 4.559708 0.000000 -1.093934
v 4.559709 0.000000 -0.843934
v 4.559678 0.073281 -0.843934
v 4.559678 0.073281 -1.093934
v 4.587620 0.000823 -1.093934
v 4.587620 0.073281 -0.843934
v 4.587620 0.000823 -0.843934
v 4.587620 0.000823 -1.093934
v 4.587620 0.073281 -1.093934
v 4.587620 0.073281 -0.843934
v 4.559678 0.073281 -0.843934
v 4.587620 0.073281 -1.093934
v 4.559678 0.073281 -1.093934
v 4.559678 0.073281 -0.843934
v 4.587620 0.073281 -0.843934
v 4.587620 0.073281 -1.093934
v 4.587620 0.000823 -0.843934
v 4.559678 0.073281 -0.843934
v 4.559709 0.000000 -0.843934
v 4.587620 0.000823 -0.843934
v 4.587620 0.073281 -0.843934
v 4.559678 0.073281 -0.843934
v 4.559708 0.000000 -1.093934
v 4.587620 0.073281 -1.093934
v 4.587620 0.000823 -1.093934
v 4.559708 0.000000 -1.093934
v 4.559678 0.073281 -1.093934
v 4.587620 0.073281 -1.093934
v 4.587620 0.000823 -0.843934
v 4.559708 0.000000 -1.093934
v 4.587620 0.000823 -1.093934
v 4.587620 0.000823 -0.843934
v 4.559709 0.000000 -0.843934
v 4.559708 0.000000 -1.093934
vn 1.0000 -0.0000 -0.0000
vn -1.0000 -0.0000 -0.0000
vn -0.0000 -0.0000 1.0000
vn -0.0000 -0.0000 -1.0000
vn -0.0000 -1.0000 -0.0000
vn -0.0000 1.0000 -0.0000
vn 0.9991 0.0434 -0.0000
vn -0.0000 0.0056 1.0000
vn -0.0132 -0.0000 0.9999
vn 0.0131 -0.0050 -0.9999
vn -0.0264 -0.9997 -0.0000
vn -1.0000 -0.0004 -0.0000
vn 0.0145 0.0056 0.9999
vn -0.0147 -0.0000 -0.9999
vn -0.0000 -0.0056 -1.0000
vn 0.0295 -0.9996 -0.0000
vt 0.765625 0.750000
vt 0.843750 0.531250
vt 0.843750 0.750000
vt 0.765625 0.531250
vt 0.648438 0.921875
vt 0.726562 0.679688
vt 0.726562 0.921875
vt 0.648438 0.679688
vt 0.578125 0.804688
vt 0.835938 0.679688
vt 0.835938 0.804688
vt 0.578125 0.679688
vt 0.578125 0.796875
vt 0.835938 0.671875
vt 0.835938 0.796875
vt 0.578125 0.671875
vt 0.625000 0.875000
vt 0.500000 0.750000
vt 0.625000 0.750000
vt 0.500000 0.875000
vt 0.460938 0.804688
vt 0.531250 0.539062
vt 0.531250 0.804688
vt 0.460938 0.539062
vt 0.460938 0.921875
vt 0.539062 0.679688
vt 0.539062 0.921875
vt 0.460938 0.679688
vt 0.656250 0.843750
vt 0.531250 0.718750
vt 0.656250 0.718750
vt 0.531250 0.843750
vt 0.460938 0.859375
vt 0.539062 0.859375
vt 0.531250 0.921875
vt 0.460938 0.851562
vt 0.531250 0.851562
vt 0.843750 0.921875
vt 0.664062 0.851562
vt 0.664062 0.921875
vt 0.843750 0.851562
vt 0.578125 0.851562
vt 0.578125 0.921875
vt 0.289062 0.835938
vt 0.375000 0.750000
vt 0.375000 0.835938
vt 0.289062 0.750000
vt 0.460938 0.750000
vt 0.460938 0.835938
s 0
usemtl backrooms.004
f 1/1/1 2/2/1 3/3/1
f 4/1/1 5/4/1 6/2/1
f 7/5/2 8/6/2 9/7/2
f 10/5/2 11/8/2 12/6/2
f 13/9/3 14/10/3 15/11/3
f 16/9/3 17/12/3 18/10/3
f 19/13/4 20/14/4 21/15/4
f 22/13/4 23/16/4 24/14/4
f 25/17/5 26/18/5 27/19/5
f 28/17/5 29/20/5 30/18/5
f 31/21/1 32/22/1 33/23/1
f 34/21/1 35/24/1 36/22/1
f 37/25/2 38/26/2 39/27/2
f 40/25/2 41/28/2 42/26/2
f 43/29/6 44/30/6 45/31/6
f 46/29/6 47/32/6 48/30/6
f 49/9/3 50/10/3 51/11/3
f 52/9/3 53/12/3 54/10/3
f 55/13/4 56/14/4 57/15/4
f 58/13/4 59/16/4 60/14/4
f 61/17/5 62/18/5 63/19/5
f 64/17/5 65/20/5 66/18/5
f 67/27/2 68/33/2 69/34/2
f 70/27/2 71/25/2 72/33/2
f 73/29/4 74/30/4 75/31/4
f 76/29/4 77/32/4 78/30/4
f 79/35/1 80/36/1 81/37/1
f 82/35/1 83/25/1 84/36/1
f 85/29/3 86/30/3 87/31/3
f 88/29/3 89/32/3 90/30/3
f 91/38/1 92/39/1 93/40/1
f 94/38/1 95/41/1 96/39/1
f 97/29/5 98/30/5 99/31/5
f 100/29/5 101/32/5 102/30/5
f 103/42/2 104/38/2 105/41/2
f 106/42/2 107/43/2 108/38/2
f 109/29/6 110/30/6 111/31/6
f 112/29/6 113/32/6 114/30/6
f 115/44/7 116/45/7 117/46/7
f 118/44/7 119/47/7 120/45/7
f 121/46/2 122/48/2 123/49/2
f 124/46/2 125/45/2 126/48/2
f 127/49/6 128/45/6 129/48/6
f 130/49/6 131/46/6 132/45/6
f 133/46/8 134/48/8 135/49/8
f 136/46/9 137/45/9 138/48/9
f 139/46/4 140/48/4 141/49/4
f 142/46/10 143/45/10 144/48/10
f 145/49/11 146/45/11 147/48/11
f 148/49/11 149/46/11 150/45/11
f 151/47/12 152/46/12 153/45/12
f 154/47/12 155/44/12 156/46/12
f 157/45/1 158/49/1 159/48/1
f 160/45/1 161/46/1 162/49/1
f 163/46/6 164/48/6 165/45/6
f 166/46/6 167/49/6 168/48/6
f 169/45/13 170/49/13 171/48/13
f 172/45/3 173/46/3 174/49/3
f 175/45/14 176/49/14 177/48/14
f 178/45/15 179/46/15 180/49/15
f 181/46/16 182/48/16 183/45/16
f 184/46/16 185/49/16 186/48/16
f 187/44/7 188/45/7 189/46/7
f 190/44/7 191/47/7 192/45/7
f 193/46/2 194/48/2 195/49/2
f 196/46/2 197/45/2 198/48/2
f 199/49/6 200/45/6 201/48/6
f 202/49/6 203/46/6 204/45/6
f 205/46/3 206/48/3 207/49/3
f 208/46/3 209/45/3 210/48/3
f 211/46/4 212/48/4 213/49/4
f 214/46/4 215/45/4 216/48/4
f 217/49/11 218/45/11 219/48/11
f 220/49/11 221/46/11 222/45/11
f 223/47/12 224/46/12 225/45/12
f 226/47/12 227/44/12 228/46/12
f 229/45/1 230/49/1 231/48/1
f 232/45/1 233/46/1 234/49/1
f 235/46/6 236/48/6 237/45/6
f 238/46/6 239/49/6 240/48/6
f 241/45/3 242/49/3 243/48/3
f 244/45/3 245/46/3 246/49/3
f 247/45/4 248/49/4 249/48/4
f 250/45/4 251/46/4 252/49/4
f 253/46/16 254/48/16 255/45/16
f 256/46/16 257/49/16 258/48/16
