{
	"asset":{
		"generator":"Khronos glTF Blender I/O v5.1.19",
		"version":"2.0"
	},
	"extensionsUsed":[
		"KHR_materials_specular"
	],
	"scene":0,
	"scenes":[
		{
			"name":"Scene",
			"nodes":[
				35,
				36
			]
		}
	],
	"nodes":[
		{
			"name":"f_index.03.L_end",
			"rotation":[
				-1.792796311406164e-08,
				-6.9849201977945086e-09,
				7.241034438720817e-08,
				1
			],
			"scale":[
				0.9999999403953552,
				0.9999998211860657,
				0.9999998807907104
			],
			"translation":[
				-1.1175870895385742e-08,
				0.018034683540463448,
				5.2619725465774536e-08
			]
		},
		{
			"children":[
				0
			],
			"name":"f_index.03.L",
			"rotation":[
				0.04443138837814331,
				0.0032175711821764708,
				-0.03927046060562134,
				0.9982351064682007
			],
			"translation":[
				-3.166496753692627e-08,
				0.02283250167965889,
				-9.313225746154785e-10
			]
		},
		{
			"children":[
				1
			],
			"name":"f_index.02.L",
			"rotation":[
				-0.021373633295297623,
				0.0062166666612029076,
				-0.01748661883175373,
				0.9995993375778198
			],
			"scale":[
				1,
				1,
				0.9999998807907104
			],
			"translation":[
				-7.450580596923828e-09,
				0.03594762086868286,
				-2.0954757928848267e-08
			]
		},
		{
			"children":[
				2
			],
			"name":"f_index.01.L",
			"rotation":[
				0.20828768610954285,
				0.02726261131465435,
				-0.05877654254436493,
				0.9759191870689392
			],
			"scale":[
				1.0000001192092896,
				1.0000001192092896,
				1.0000001192092896
			],
			"translation":[
				-6.51925802230835e-09,
				0.05602717772126198,
				-6.146728992462158e-08
			]
		},
		{
			"name":"thumb.03.L_end",
			"rotation":[
				2.048909308882685e-08,
				9.313224857976365e-09,
				-1.8626449271863521e-09,
				1
			],
			"scale":[
				1.0000001192092896,
				1.0000001192092896,
				1.0000001192092896
			],
			"translation":[
				5.820766091346741e-09,
				0.013532028533518314,
				2.0023435354232788e-08
			]
		},
		{
			"children":[
				4
			],
			"name":"thumb.03.L",
			"rotation":[
				0.02757655829191208,
				0.00638921232894063,
				0.10428055375814438,
				0.9941449761390686
			],
			"scale":[
				1,
				0.9999998807907104,
				0.9999999403953552
			],
			"translation":[
				-5.052424967288971e-08,
				0.029635250568389893,
				6.28642737865448e-09
			]
		},
		{
			"children":[
				5
			],
			"name":"thumb.02.L",
			"rotation":[
				-0.03480109944939613,
				-0.049711015075445175,
				0.10937472432851791,
				0.9921466112136841
			],
			"scale":[
				1,
				1,
				1.0000001192092896
			],
			"translation":[
				1.932494342327118e-08,
				0.04339906573295593,
				-1.3969838619232178e-08
			]
		},
		{
			"children":[
				6
			],
			"name":"thumb.01.L",
			"rotation":[
				-0.09402921795845032,
				0.7540497183799744,
				0.2635326087474823,
				0.5942374467849731
			],
			"scale":[
				1,
				1.0000001192092896,
				1
			],
			"translation":[
				-0.0297380480915308,
				-0.020688191056251526,
				-0.0016620371025055647
			]
		},
		{
			"children":[
				3,
				7
			],
			"name":"palm.01.L",
			"rotation":[
				-0.02394850179553032,
				0.7393185496330261,
				-0.03642244264483452,
				0.6719433665275574
			],
			"scale":[
				1.0000001192092896,
				1.000000238418579,
				1.0000001192092896
			],
			"translation":[
				0.0167248398065567,
				0.06306672841310501,
				0.01588290184736252
			]
		},
		{
			"name":"f_ring.03.L_end",
			"rotation":[
				-1.862645371275562e-09,
				1.0128134775300168e-08,
				-1.9441361587269057e-07,
				1
			],
			"scale":[
				0.9999999403953552,
				0.9999999403953552,
				0.9999998807907104
			],
			"translation":[
				5.960464477539063e-08,
				0.018845869228243828,
				5.4016709327697754e-08
			]
		},
		{
			"children":[
				9
			],
			"name":"f_ring.03.L",
			"rotation":[
				0.006900361273437738,
				-0.009563774801790714,
				0.003308817045763135,
				0.9999249577522278
			],
			"scale":[
				1,
				0.9999999403953552,
				0.9999998807907104
			],
			"translation":[
				-1.1175870895385742e-08,
				0.032035402953624725,
				7.450580596923828e-09
			]
		},
		{
			"children":[
				10
			],
			"name":"f_ring.02.L",
			"rotation":[
				0.10140110552310944,
				-0.004198051523417234,
				-0.008759782649576664,
				0.9947982430458069
			],
			"scale":[
				0.9999999403953552,
				0.9999999403953552,
				0.9999998807907104
			],
			"translation":[
				2.2351741790771484e-08,
				0.04553183168172836,
				2.7008354663848877e-08
			]
		},
		{
			"children":[
				11
			],
			"name":"f_ring.01.L",
			"rotation":[
				-0.009475580416619778,
				0.07583308964967728,
				0.0033982633613049984,
				0.9970697164535522
			],
			"scale":[
				0.9999998807907104,
				0.9999999403953552,
				1
			],
			"translation":[
				-0.0007160529494285583,
				0.07920286059379578,
				0.00018705427646636963
			]
		},
		{
			"children":[
				12
			],
			"name":"palm.03.L",
			"rotation":[
				-0.04833627864718437,
				0.6497356295585632,
				-0.20017455518245697,
				0.7317358255386353
			],
			"scale":[
				1.0000001192092896,
				0.9999998807907104,
				0.9999998807907104
			],
			"translation":[
				0.0016552289016544819,
				0.02434271015226841,
				-0.018856650218367577
			]
		},
		{
			"children":[
				8,
				13
			],
			"name":"hand.L",
			"rotation":[
				0.026131005957722664,
				-0.04647143930196762,
				0.04888569563627243,
				0.9973804354667664
			],
			"scale":[
				0.9999999403953552,
				1,
				0.9999998807907104
			],
			"translation":[
				6.170012056827545e-08,
				0.2910536229610443,
				7.450580596923828e-09
			]
		},
		{
			"children":[
				14
			],
			"name":"forearm.L",
			"rotation":[
				0.0131564075127244,
				0.17873013019561768,
				-0.06794214993715286,
				0.9814613461494446
			],
			"scale":[
				0.9999998211860657,
				0.9999998807907104,
				0.9999999403953552
			],
			"translation":[
				-2.0489096641540527e-08,
				0.32457655668258667,
				1.4901161193847656e-08
			]
		},
		{
			"children":[
				15
			],
			"name":"upper_arm.L",
			"rotation":[
				-0.10131670534610748,
				-0.02684406377375126,
				-0.9699475169181824,
				0.21958166360855103
			],
			"translation":[
				0.20851925015449524,
				0.6298843026161194,
				-0.019803402945399284
			]
		},
		{
			"name":"f_index.03.R_end",
			"rotation":[
				-2.3283066585833012e-09,
				8.381903171539307e-09,
				8.032657206058502e-09,
				1
			],
			"scale":[
				1,
				0.9999999403953552,
				0.9999999403953552
			],
			"translation":[
				-3.725290298461914e-09,
				0.018034782260656357,
				-1.862645149230957e-08
			]
		},
		{
			"children":[
				17
			],
			"name":"f_index.03.R",
			"rotation":[
				0.04443405568599701,
				-0.003215460805222392,
				0.03927000239491463,
				0.9982350468635559
			],
			"scale":[
				1,
				0.9999998211860657,
				0.9999999403953552
			],
			"translation":[
				7.450580596923828e-09,
				0.022832375019788742,
				-5.029141902923584e-08
			]
		},
		{
			"children":[
				18
			],
			"name":"f_index.02.R",
			"rotation":[
				-0.021376529708504677,
				-0.006219255272299051,
				0.01748714968562126,
				0.9995992183685303
			],
			"scale":[
				1,
				1.0000001192092896,
				0.9999999403953552
			],
			"translation":[
				-3.725290298461914e-09,
				0.03594742715358734,
				-2.514570951461792e-08
			]
		},
		{
			"children":[
				19
			],
			"name":"f_index.01.R",
			"rotation":[
				0.20828811824321747,
				-0.027262069284915924,
				0.05877643823623657,
				0.9759191870689392
			],
			"scale":[
				1.0000001192092896,
				1.0000001192092896,
				1.0000001192092896
			],
			"translation":[
				-1.30385160446167e-08,
				0.056027088314294815,
				-4.7497451305389404e-08
			]
		},
		{
			"name":"thumb.03.R_end",
			"rotation":[
				-2.9802322387695312e-08,
				1.3783574104309082e-07,
				-9.313225746154785e-09,
				1
			],
			"scale":[
				1.0000001192092896,
				1,
				0.9999999403953552
			],
			"translation":[
				-7.450580596923828e-09,
				0.013531958684325218,
				-2.2351741790771484e-08
			]
		},
		{
			"children":[
				21
			],
			"name":"thumb.03.R",
			"rotation":[
				0.027576202526688576,
				-0.006387776229530573,
				-0.10428182780742645,
				0.994144856929779
			],
			"scale":[
				0.9999998807907104,
				0.9999998807907104,
				0.9999999403953552
			],
			"translation":[
				-7.450580596923828e-09,
				0.029635116457939148,
				-5.960464477539063e-08
			]
		},
		{
			"children":[
				22
			],
			"name":"thumb.02.R",
			"rotation":[
				-0.034801024943590164,
				0.04970930889248848,
				-0.10937343537807465,
				0.9921468496322632
			],
			"scale":[
				1,
				0.9999999403953552,
				1
			],
			"translation":[
				2.9802322387695312e-08,
				0.04339902848005295,
				5.960464477539063e-08
			]
		},
		{
			"children":[
				23
			],
			"name":"thumb.01.R",
			"rotation":[
				-0.09402918815612793,
				-0.7540496587753296,
				-0.26353272795677185,
				0.5942374467849731
			],
			"scale":[
				1.0000001192092896,
				0.9999998807907104,
				0.9999998807907104
			],
			"translation":[
				0.02973802201449871,
				-0.020688269287347794,
				-0.001662026159465313
			]
		},
		{
			"children":[
				20,
				24
			],
			"name":"palm.01.R",
			"rotation":[
				-0.023948615416884422,
				-0.7393185496330261,
				0.036422375589609146,
				0.6719434261322021
			],
			"scale":[
				1,
				1.000000238418579,
				1
			],
			"translation":[
				-0.01672472059726715,
				0.06306677311658859,
				0.01588292419910431
			]
		},
		{
			"name":"f_ring.03.R_end",
			"rotation":[
				-1.1641532182693481e-09,
				-4.307366907596588e-09,
				2.0925654098391533e-08,
				1
			],
			"scale":[
				1,
				1,
				1.0000001192092896
			],
			"translation":[
				1.6763806343078613e-08,
				0.018845923244953156,
				-4.0279701352119446e-08
			]
		},
		{
			"children":[
				26
			],
			"name":"f_ring.03.R",
			"rotation":[
				0.006898518186062574,
				0.009562238119542599,
				-0.003308594459667802,
				0.9999250173568726
			],
			"scale":[
				1,
				0.9999999403953552,
				1
			],
			"translation":[
				-7.450580596923828e-09,
				0.032035525888204575,
				-5.122274160385132e-09
			]
		},
		{
			"children":[
				27
			],
			"name":"f_ring.02.R",
			"rotation":[
				0.10140369832515717,
				0.004200168885290623,
				0.008759536780416965,
				0.994797945022583
			],
			"scale":[
				1,
				0.9999998807907104,
				0.9999998807907104
			],
			"translation":[
				-9.313225746154785e-09,
				0.04553177207708359,
				-2.3865140974521637e-08
			]
		},
		{
			"children":[
				28
			],
			"name":"f_ring.01.R",
			"rotation":[
				-0.00947618018835783,
				-0.07583343237638474,
				-0.0033981504384428263,
				0.9970697164535522
			],
			"scale":[
				0.9999999403953552,
				0.9999998807907104,
				0.9999999403953552
			],
			"translation":[
				0.0007160421228036284,
				0.07920300960540771,
				0.00018709394498728216
			]
		},
		{
			"children":[
				29
			],
			"name":"palm.03.R",
			"rotation":[
				-0.048336371779441833,
				-0.6497358083724976,
				0.20017442107200623,
				0.7317357063293457
			],
			"scale":[
				0.9999999403953552,
				0.9999998807907104,
				1
			],
			"translation":[
				-0.0016550442669540644,
				0.02434271201491356,
				-0.018856650218367577
			]
		},
		{
			"children":[
				25,
				30
			],
			"name":"hand.R",
			"rotation":[
				0.0261310413479805,
				0.04647141695022583,
				-0.0488857664167881,
				0.9973804950714111
			],
			"scale":[
				0.9999998807907104,
				0.9999999403953552,
				0.9999999403953552
			],
			"translation":[
				3.5390257835388184e-08,
				0.29105353355407715,
				-2.7008354663848877e-08
			]
		},
		{
			"children":[
				31
			],
			"name":"forearm.R",
			"rotation":[
				0.013156376779079437,
				-0.1787300705909729,
				0.06794232875108719,
				0.9814612865447998
			],
			"scale":[
				0.9999998807907104,
				1,
				0.9999999403953552
			],
			"translation":[
				-3.213062882423401e-08,
				0.3245767056941986,
				-2.7939677238464355e-09
			]
		},
		{
			"children":[
				32
			],
			"name":"upper_arm.R",
			"rotation":[
				-0.10131672769784927,
				0.026844026520848274,
				0.9699475169181824,
				0.2195817083120346
			],
			"scale":[
				1,
				1.000000238418579,
				1
			],
			"translation":[
				-0.20851929485797882,
				0.6298843026161194,
				-0.019803402945399284
			]
		},
		{
			"mesh":0,
			"name":"Arm",
			"skin":0
		},
		{
			"children":[
				34,
				16,
				33
			],
			"name":"ArmRig",
			"rotation":[
				0,
				0.06271383911371231,
				0,
				0.9980315566062927
			],
			"scale":[
				0.5,
				0.5,
				0.5
			],
			"translation":[
				0,
				-0.5103930234909058,
				-0.00796304177492857
			]
		},
		{
			"mesh":1,
			"name":"Flashlight.001",
			"rotation":[
				0.012988682836294174,
				0.017120281234383583,
				-0.7065643072128296,
				0.7073225975036621
			],
			"translation":[
				-0.2498473972082138,
				-0.537321925163269,
				0.06407792121171951
			]
		}
	],
	"materials":[
		{
			"doubleSided":true,
			"name":"FPS_Arm",
			"pbrMetallicRoughness":{
				"baseColorTexture":{
					"index":0
				},
				"metallicFactor":0
			}
		},
		{
			"doubleSided":true,
			"extensions":{
				"KHR_materials_specular":{
					"specularFactor":0
				}
			},
			"name":"Flashlight.001",
			"pbrMetallicRoughness":{
				"baseColorFactor":[
					0.17613500356674194,
					0.17613500356674194,
					0.17613500356674194,
					1
				],
				"metallicFactor":0
			}
		},
		{
			"doubleSided":true,
			"name":"Material.002",
			"pbrMetallicRoughness":{
				"baseColorFactor":[
					0,
					0,
					0,
					1
				],
				"metallicFactor":0,
				"roughnessFactor":0.5
			}
		},
		{
			"doubleSided":true,
			"name":"lens.001",
			"pbrMetallicRoughness":{
				"baseColorFactor":[
					0.800000011920929,
					0.800000011920929,
					0.800000011920929,
					1
				],
				"roughnessFactor":0.06363636255264282
			}
		}
	],
	"meshes":[
		{
			"name":"Cube.004",
			"primitives":[
				{
					"attributes":{
						"POSITION":0,
						"NORMAL":1,
						"TEXCOORD_0":2,
						"COLOR_0":3,
						"COLOR_1":4,
						"JOINTS_0":5,
						"WEIGHTS_0":6
					},
					"indices":7,
					"material":0
				}
			]
		},
		{
			"name":"Flashlight.001",
			"primitives":[
				{
					"attributes":{
						"POSITION":9,
						"NORMAL":10,
						"TEXCOORD_0":11
					},
					"indices":12,
					"material":1
				},
				{
					"attributes":{
						"POSITION":13,
						"NORMAL":14,
						"TEXCOORD_0":15
					},
					"indices":16,
					"material":2
				},
				{
					"attributes":{
						"POSITION":17,
						"NORMAL":18,
						"TEXCOORD_0":19
					},
					"indices":20,
					"material":3
				}
			]
		}
	],
	"textures":[
		{
			"sampler":0,
			"source":0
		}
	],
	"images":[
		{
			"mimeType":"image/png",
			"name":"FPSarm_256px",
			"uri":"FPSarm_256px.png"
		}
	],
	"skins":[
		{
			"inverseBindMatrices":8,
			"joints":[
				16,
				15,
				14,
				8,
				3,
				2,
				1,
				0,
				7,
				6,
				5,
				4,
				13,
				12,
				11,
				10,
				9,
				33,
				32,
				31,
				25,
				20,
				19,
				18,
				17,
				24,
				23,
				22,
				21,
				30,
				29,
				28,
				27,
				26
			],
			"name":"ArmRig"
		}
	],
	"accessors":[
		{
			"bufferView":0,
			"componentType":5126,
			"count":756,
			"max":[
				0.23859864473342896,
				-0.1770523190498352,
				0.06528874486684799
			],
			"min":[
				-0.24049721658229828,
				-0.5834135413169861,
				-0.08342399448156357
			],
			"type":"VEC3"
		},
		{
			"bufferView":1,
			"componentType":5126,
			"count":756,
			"type":"VEC3"
		},
		{
			"bufferView":2,
			"componentType":5126,
			"count":756,
			"type":"VEC2"
		},
		{
			"bufferView":3,
			"componentType":5121,
			"count":756,
			"normalized":true,
			"type":"VEC4"
		},
		{
			"bufferView":4,
			"componentType":5123,
			"count":756,
			"normalized":true,
			"type":"VEC4"
		},
		{
			"bufferView":5,
			"componentType":5121,
			"count":756,
			"type":"VEC4"
		},
		{
			"bufferView":6,
			"componentType":5126,
			"count":756,
			"type":"VEC4"
		},
		{
			"bufferView":7,
			"componentType":5123,
			"count":1140,
			"type":"SCALAR"
		},
		{
			"bufferView":8,
			"componentType":5126,
			"count":34,
			"type":"MAT4"
		},
		{
			"bufferView":9,
			"componentType":5126,
			"count":172,
			"max":[
				0.02250000089406967,
				0.02250000089406967,
				0.021779000759124756
			],
			"min":[
				-0.02250000089406967,
				-0.02250000089406967,
				-0.0975010022521019
			],
			"type":"VEC3"
		},
		{
			"bufferView":10,
			"componentType":5126,
			"count":172,
			"type":"VEC3"
		},
		{
			"bufferView":11,
			"componentType":5126,
			"count":172,
			"type":"VEC2"
		},
		{
			"bufferView":12,
			"componentType":5123,
			"count":300,
			"type":"SCALAR"
		},
		{
			"bufferView":13,
			"componentType":5126,
			"count":20,
			"max":[
				-0.014999999664723873,
				0.0014410000294446945,
				-0.03750000149011612
			],
			"min":[
				-0.020002000033855438,
				-0.0018149999668821692,
				-0.04500000178813934
			],
			"type":"VEC3"
		},
		{
			"bufferView":14,
			"componentType":5126,
			"count":20,
			"type":"VEC3"
		},
		{
			"bufferView":15,
			"componentType":5126,
			"count":20,
			"type":"VEC2"
		},
		{
			"bufferView":16,
			"componentType":5123,
			"count":30,
			"type":"SCALAR"
		},
		{
			"bufferView":17,
			"componentType":5126,
			"count":8,
			"max":[
				0.019178999587893486,
				0.019178999587893486,
				0.018115999177098274
			],
			"min":[
				-0.019178999587893486,
				-0.019178999587893486,
				0.018115999177098274
			],
			"type":"VEC3"
		},
		{
			"bufferView":18,
			"componentType":5126,
			"count":8,
			"type":"VEC3"
		},
		{
			"bufferView":19,
			"componentType":5126,
			"count":8,
			"type":"VEC2"
		},
		{
			"bufferView":20,
			"componentType":5123,
			"count":18,
			"type":"SCALAR"
		}
	],
	"bufferViews":[
		{
			"buffer":0,
			"byteLength":9072,
			"byteOffset":0,
			"target":34962
		},
		{
			"buffer":0,
			"byteLength":9072,
			"byteOffset":9072,
			"target":34962
		},
		{
			"buffer":0,
			"byteLength":6048,
			"byteOffset":18144,
			"target":34962
		},
		{
			"buffer":0,
			"byteLength":3024,
			"byteOffset":24192,
			"target":34962
		},
		{
			"buffer":0,
			"byteLength":6048,
			"byteOffset":27216,
			"target":34962
		},
		{
			"buffer":0,
			"byteLength":3024,
			"byteOffset":33264,
			"target":34962
		},
		{
			"buffer":0,
			"byteLength":12096,
			"byteOffset":36288,
			"target":34962
		},
		{
			"buffer":0,
			"byteLength":2280,
			"byteOffset":48384,
			"target":34963
		},
		{
			"buffer":0,
			"byteLength":2176,
			"byteOffset":50664
		},
		{
			"buffer":0,
			"byteLength":2064,
			"byteOffset":52840,
			"target":34962
		},
		{
			"buffer":0,
			"byteLength":2064,
			"byteOffset":54904,
			"target":34962
		},
		{
			"buffer":0,
			"byteLength":1376,
			"byteOffset":56968,
			"target":34962
		},
		{
			"buffer":0,
			"byteLength":600,
			"byteOffset":58344,
			"target":34963
		},
		{
			"buffer":0,
			"byteLength":240,
			"byteOffset":58944,
			"target":34962
		},
		{
			"buffer":0,
			"byteLength":240,
			"byteOffset":59184,
			"target":34962
		},
		{
			"buffer":0,
			"byteLength":160,
			"byteOffset":59424,
			"target":34962
		},
		{
			"buffer":0,
			"byteLength":60,
			"byteOffset":59584,
			"target":34963
		},
		{
			"buffer":0,
			"byteLength":96,
			"byteOffset":59644,
			"target":34962
		},
		{
			"buffer":0,
			"byteLength":96,
			"byteOffset":59740,
			"target":34962
		},
		{
			"buffer":0,
			"byteLength":64,
			"byteOffset":59836,
			"target":34962
		},
		{
			"buffer":0,
			"byteLength":36,
			"byteOffset":59900,
			"target":34963
		}
	],
	"samplers":[
		{
			"magFilter":9729,
			"minFilter":9987
		}
	],
	"buffers":[
		{
			"byteLength":59936,
			"uri":"Arms.bin"
		}
	]
}
