# picocad model
mtllib unnamed_6.mtl
o unnamed_6
v -0.5 1.5 0.048024723853199
v -0.5 1.25 0.048024723853199
v -0.66671703504784 1.25 0.048024723853199
v -0.66671703504784 1.5 0.048024723853199
v -0.5 1.5 -0.060486256878908
v -0.5 1.25 -0.060486256878908
v -0.66671703504784 1.25 -0.060486256878908
v -0.66671703504784 1.5 -0.060486256878908
v 0.60423367262893 3.25 0.25
v 0.25 3.25 0.59086471467444
v -0.25 3.25 0.59086471467444
v -0.58731725896654 3.25 0.25
v -0.58731725896654 3.25 -0.25
v -0.25 3.25 -0.59086471467444
v 0.25 3.25 -0.59086471467444
v 0.60423367262893 3.25 -0.25
v 0.60423367262893 2.75 0.25
v 0.25 2.75 0.59086471467444
v -0.25 2.75 0.59086471467444
v -0.58731725896654 2.75 0.25
v -0.58731725896654 2.75 -0.25
v -0.25 2.75 -0.59086471467444
v 0.25 2.75 -0.59086471467444
v 0.60423367262893 2.75 -0.25
v 0.5 0 0.25
v 0.25 0 0.5
v -0.25 0 0.5
v -0.5 0 0.25
v -0.5 0 -0.25
v -0.25 0 -0.5
v 0.25 0 -0.5
v 0.5 0 -0.25
v 0.75 -0.72595860549679 0.25
v 0.25 -0.72595860549679 0.75
v -0.25 -0.72595860549679 0.75
v -0.75 -0.72595860549679 0.25
v -0.75 -0.72595860549679 -0.25
v -0.25 -0.72595860549679 -0.75
v 0.25 -0.72595860549679 -0.75
v 0.75 -0.72595860549679 -0.25
v 0.5 2.75 0.25
v 0.25 2.75 0.5
v -0.25 2.75 0.5
v -0.5 2.75 0.25
v -0.5 2.75 -0.25
v -0.25 2.75 -0.5
v 0.25 2.75 -0.5
v 0.5 2.75 -0.25

vt 0.375 1
vt 0.5 1
vt 0.5 0.875
vt 0.375 0.875
vt 0.375 1
vt 0.5 1
vt 0.5 0.875
vt 0.375 0.875
vt 0.5 1
vt 0.5 0.875
vt 0.375 0.875
vt 0.375 1
vt 0.375 1
vt 0.5 1
vt 0.5 0.875
vt 0.375 0.875
vt 0.375 1
vt 0.5 1
vt 0.5 0.875
vt 0.375 0.875
vt 0.5 1
vt 0.5 0.875
vt 0.375 0.875
vt 0.375 1
vt 0.78125 0.875
vt 0.75 0.90625
vt 0.75 0.96875
vt 0.78125 1
vt 0.84375 1
vt 0.875 0.96875
vt 0.875 0.90625
vt 0.84375 0.875
vt 0.78125 0.875
vt 0.75 0.90625
vt 0.75 0.96875
vt 0.78125 1
vt 0.84375 1
vt 0.875 0.96875
vt 0.875 0.90625
vt 0.84375 0.875
vt 0.875 1
vt 0.875 0.875
vt 0.75 0.875
vt 0.75 1
vt 0.875 1
vt 0.875 0.875
vt 0.75 0.875
vt 0.75 1
vt 0.875 1
vt 0.875 0.875
vt 0.75 0.875
vt 0.75 1
vt 0.875 1
vt 0.875 0.875
vt 0.75 0.875
vt 0.75 1
vt 0.875 1
vt 0.875 0.875
vt 0.75 0.875
vt 0.75 1
vt 0.875 1
vt 0.875 0.875
vt 0.75 0.875
vt 0.75 1
vt 0.875 1
vt 0.875 0.875
vt 0.75 0.875
vt 0.75 1
vt 0.875 1
vt 0.875 0.875
vt 0.75 0.875
vt 0.75 1
vt 0.78125 0.875
vt 0.75 0.90625
vt 0.75 0.96875
vt 0.78125 1
vt 0.84375 1
vt 0.875 0.96875
vt 0.875 0.90625
vt 0.84375 0.875
vt 0.78125 0.875
vt 0.75 0.90625
vt 0.75 0.96875
vt 0.78125 1
vt 0.84375 1
vt 0.875 0.96875
vt 0.875 0.90625
vt 0.84375 0.875
vt 0.875 1
vt 0.875 0.875
vt 0.75 0.875
vt 0.75 1
vt 0.875 1
vt 0.875 0.875
vt 0.75 0.875
vt 0.75 1
vt 0.875 1
vt 0.875 0.875
vt 0.75 0.875
vt 0.75 1
vt 0.875 1
vt 0.875 0.875
vt 0.75 0.875
vt 0.75 1
vt 0.875 1
vt 0.875 0.875
vt 0.75 0.875
vt 0.75 1
vt 0.875 1
vt 0.875 0.875
vt 0.75 0.875
vt 0.75 1
vt 0.875 1
vt 0.875 0.875
vt 0.75 0.875
vt 0.75 1
vt 0.875 1
vt 0.875 0.875
vt 0.75 0.875
vt 0.75 1
vt 0.78125 0.875
vt 0.84375 0.875
vt 0.84375 0.8125
vt 0.78125 0.8125
vt 0.78125 0.875
vt 0.84375 0.875
vt 0.84375 0.8125
vt 0.78125 0.8125
vt 0.78125 0.875
vt 0.84375 0.875
vt 0.84375 0.8125
vt 0.78125 0.8125
vt 0.78125 0.875
vt 0.84375 0.875
vt 0.84375 0.8125
vt 0.78125 0.8125
vt 0.78125 0.875
vt 0.84375 0.875
vt 0.84375 0.8125
vt 0.78125 0.8125
vt 0.78125 0.875
vt 0.84375 0.875
vt 0.84375 0.8125
vt 0.78125 0.8125
vt 0.78125 0.875
vt 0.84375 0.875
vt 0.84375 0.8125
vt 0.78125 0.8125
vt 0.78125 0.875
vt 0.84375 0.875
vt 0.84375 0.8125
vt 0.78125 0.8125

usemtl unnamed_6.mtl
s off
f 4/4/1 3/3/1 2/2/1 1/1/1 
f 7/8/2 8/7/2 5/6/2 6/5/2 
f 1/12/3 2/11/3 6/10/3 5/9/3 
f 8/16/4 4/15/4 1/14/4 5/13/4 
f 3/20/5 7/19/5 6/18/5 2/17/5 
f 8/24/6 7/23/6 3/22/6 4/21/6 
f 16/32/7 15/31/7 14/30/7 13/29/7 12/28/7 11/27/7 10/26/7 9/25/7 
f 17/40/8 18/39/8 19/38/8 20/37/8 21/36/8 22/35/8 23/34/8 24/33/8 
f 10/44/9 18/43/9 17/42/9 9/41/9 
f 11/48/10 19/47/10 18/46/10 10/45/10 
f 12/52/11 20/51/11 19/50/11 11/49/11 
f 13/56/12 21/55/12 20/54/12 12/53/12 
f 14/60/13 22/59/13 21/58/13 13/57/13 
f 15/64/14 23/63/14 22/62/14 14/61/14 
f 16/68/15 24/67/15 23/66/15 15/65/15 
f 9/72/16 17/71/16 24/70/16 16/69/16 
f 48/80/17 47/79/17 46/78/17 45/77/17 44/76/17 43/75/17 42/74/17 41/73/17 
f 33/88/18 34/87/18 35/86/18 36/85/18 37/84/18 38/83/18 39/82/18 40/81/18 
f 26/92/19 34/91/19 33/90/19 25/89/19 
f 27/96/20 35/95/20 34/94/20 26/93/20 
f 28/100/21 36/99/21 35/98/21 27/97/21 
f 29/104/22 37/103/22 36/102/22 28/101/22 
f 30/108/23 38/107/23 37/106/23 29/105/23 
f 31/112/24 39/111/24 38/110/24 30/109/24 
f 32/116/25 40/115/25 39/114/25 31/113/25 
f 25/120/26 33/119/26 40/118/26 32/117/26 
f 42/124/27 26/123/27 25/122/27 41/121/27 
f 43/128/28 27/127/28 26/126/28 42/125/28 
f 44/132/29 28/131/29 27/130/29 43/129/29 
f 45/136/30 29/135/30 28/134/30 44/133/30 
f 46/140/31 30/139/31 29/138/31 45/137/31 
f 47/144/32 31/143/32 30/142/32 46/141/32 
f 48/148/33 32/147/33 31/146/33 47/145/33 
f 41/152/34 25/151/34 32/150/34 48/149/34 

