# Blender 5.1.0
# www.blender.org
mtllib Flashlight.mtl
o Flashlight
v -0.015000 0.045000 0.001441
v -0.015000 0.037500 0.001441
v -0.020002 0.037500 0.001441
v -0.020002 0.045000 0.001441
v -0.015000 0.045000 -0.001815
v -0.015000 0.037500 -0.001815
v -0.020002 0.037500 -0.001815
v -0.020002 0.045000 -0.001815
v 0.018127 0.097501 0.007500
v 0.007500 0.097501 0.017726
v -0.007500 0.097501 0.017726
v -0.017620 0.097501 0.007500
v -0.017620 0.097501 -0.007500
v -0.007500 0.097501 -0.017726
v 0.007500 0.097501 -0.017726
v 0.018127 0.097501 -0.007500
v 0.018127 0.082501 0.007500
v 0.007500 0.082501 0.017726
v -0.007500 0.082501 0.017726
v -0.017620 0.082501 0.007500
v -0.017620 0.082501 -0.007500
v -0.007500 0.082501 -0.017726
v 0.007500 0.082501 -0.017726
v 0.018127 0.082501 -0.007500
v 0.015000 0.000000 0.007500
v 0.007500 0.000000 0.015000
v -0.007500 0.000000 0.015000
v -0.015000 0.000000 0.007500
v -0.015000 -0.000000 -0.007500
v -0.007500 -0.000000 -0.015000
v 0.007500 -0.000000 -0.015000
v 0.015000 -0.000000 -0.007500
v 0.019179 -0.021779 0.006125
v 0.006125 -0.021779 0.019179
v -0.006125 -0.021779 0.019179
v -0.019179 -0.021779 0.006125
v -0.019179 -0.021779 -0.006125
v -0.006125 -0.021779 -0.019179
v 0.006125 -0.021779 -0.019179
v 0.019179 -0.021779 -0.006125
v 0.015000 0.082501 0.007500
v 0.007500 0.082501 0.015000
v -0.007500 0.082501 0.015000
v -0.015000 0.082501 0.007500
v -0.015000 0.082501 -0.007500
v -0.007500 0.082501 -0.015000
v 0.007500 0.082501 -0.015000
v 0.015000 0.082501 -0.007500
v 0.022500 -0.021779 0.007500
v 0.022500 -0.021779 -0.007500
v 0.007500 -0.021779 0.022500
v -0.007500 -0.021779 0.022500
v -0.022500 -0.021779 0.007500
v -0.022500 -0.021779 -0.007500
v -0.007500 -0.021779 -0.022500
v 0.007500 -0.021779 -0.022500
v 0.019179 -0.018116 0.006125
v 0.019179 -0.018116 -0.006125
v 0.006125 -0.018116 0.019179
v -0.006125 -0.018116 0.019179
v -0.019179 -0.018116 0.006125
v -0.019179 -0.018116 -0.006125
v -0.006125 -0.018116 -0.019179
v 0.006125 -0.018116 -0.019179
vn -0.0000 -0.0000 1.0000
vn -0.0000 -0.0000 -1.0000
vn 1.0000 -0.0000 -0.0000
vn -0.0000 1.0000 -0.0000
vn -0.0000 -1.0000 -0.0000
vn -1.0000 -0.0000 -0.0000
vn 0.6934 -0.0000 0.7206
vn -0.7108 -0.0000 0.7034
vn -0.7108 -0.0000 -0.7034
vn 0.6934 -0.0000 -0.7206
vn 0.7071 -0.0000 0.7071
vn 0.6870 0.2366 0.6870
vn -0.0000 0.3256 0.9455
vn -0.6870 0.2366 0.6870
vn -0.9455 0.3256 -0.0000
vn -0.6870 0.2366 -0.6870
vn -0.0000 0.3256 -0.9455
vn 0.6870 0.2366 -0.6870
vn 0.9455 0.3256 -0.0000
vn -0.7071 -0.0000 0.7071
vn -0.7071 -0.0000 -0.7071
vn 0.7071 -0.0000 -0.7071
vt 0.375000 0.875000
vt 0.500000 0.875000
vt 0.500000 1.000000
vt 0.375000 1.000000
vt 0.843750 0.875000
vt 0.875000 0.906250
vt 0.875000 0.968750
vt 0.843750 1.000000
vt 0.781250 1.000000
vt 0.750000 0.968750
vt 0.750000 0.906250
vt 0.781250 0.875000
vt 0.750000 1.000000
vt 0.750000 0.875000
vt 0.875000 0.875000
vt 0.875000 1.000000
vt 0.789022 0.991490
vt 0.758510 0.960978
vt 0.781250 0.812500
vt 0.843750 0.812500
vt 0.835978 0.883510
vt 0.789022 0.883510
vt 0.866490 0.914022
vt 0.866490 0.960978
vt 0.835978 0.991490
vt 0.758510 0.914022
s 0
usemtl Flashlight
f 1/4/3 2/1/3 6/2/3 5/3/3
f 16/5/4 15/6/4 14/7/4 13/8/4 12/9/4 11/10/4 10/11/4 9/12/4
f 17/5/5 18/6/5 19/7/5 20/8/5 21/9/5 22/10/5 23/11/5 24/12/5
f 10/13/7 18/14/7 17/15/7 9/16/7
f 11/13/1 19/14/1 18/15/1 10/16/1
f 12/13/8 20/14/8 19/15/8 11/16/8
f 13/13/6 21/14/6 20/15/6 12/16/6
f 14/13/9 22/14/9 21/15/9 13/16/9
f 15/13/2 23/14/2 22/15/2 14/16/2
f 16/13/10 24/14/10 23/15/10 15/16/10
f 9/13/3 17/14/3 24/15/3 16/16/3
f 48/5/4 47/6/4 46/7/4 45/8/4 44/9/4 43/10/4 42/11/4 41/12/4
f 37/17/11 38/18/11 63/18/11 62/17/11
f 26/13/12 51/14/12 49/15/12 25/16/12
f 27/13/13 52/14/13 51/15/13 26/16/13
f 28/13/14 53/14/14 52/15/14 27/16/14
f 29/13/15 54/14/15 53/15/15 28/16/15
f 30/13/16 55/14/16 54/15/16 29/16/16
f 31/13/17 56/14/17 55/15/17 30/16/17
f 32/13/18 50/14/18 56/15/18 31/16/18
f 25/13/19 49/14/19 50/15/19 32/16/19
f 42/19/11 26/20/11 25/5/11 41/12/11
f 43/19/1 27/20/1 26/5/1 42/12/1
f 44/19/20 28/20/20 27/5/20 43/12/20
f 45/19/6 29/20/6 28/5/6 44/12/6
f 46/19/21 30/20/21 29/5/21 45/12/21
f 47/19/2 31/20/2 30/5/2 46/12/2
f 48/19/22 32/20/22 31/5/22 47/12/22
f 41/19/3 25/20/3 32/5/3 48/12/3
f 33/21/5 40/22/5 50/12/5 49/5/5
f 34/23/5 33/21/5 49/5/5 51/6/5
f 35/24/5 34/23/5 51/6/5 52/7/5
f 36/25/5 35/24/5 52/7/5 53/8/5
f 37/17/5 36/25/5 53/8/5 54/9/5
f 38/18/5 37/17/5 54/9/5 55/10/5
f 39/26/5 38/18/5 55/10/5 56/11/5
f 40/22/5 39/26/5 56/11/5 50/12/5
f 35/24/22 36/25/22 61/25/22 60/24/22
f 33/21/21 34/23/21 59/23/21 57/21/21
f 38/18/1 39/26/1 64/26/1 63/18/1
f 36/25/3 37/17/3 62/17/3 61/25/3
f 34/23/2 35/24/2 60/24/2 59/23/2
f 40/22/6 33/21/6 57/21/6 58/22/6
f 39/26/20 40/22/20 58/22/20 64/26/20
usemtl Material.001
f 4/1/1 3/2/1 2/3/1 1/4/1
f 7/1/2 8/2/2 5/3/2 6/4/2
f 8/1/4 4/2/4 1/3/4 5/4/4
f 3/1/5 7/2/5 6/3/5 2/4/5
f 8/4/6 7/1/6 3/2/6 4/3/6
usemtl lens
f 57/21/5 59/23/5 60/24/5 61/25/5 62/17/5 63/18/5 64/26/5 58/22/5
