{
  "asset": { "version": "2.0" },
  "scene": 0,
  "scenes": [{ "nodes": [0,1,2,3,4,5,6,7,8,9] }],
  "nodes": [{"mesh":0},{"mesh":1},{"mesh":2},{"mesh":3},{"mesh":4},{"mesh":5},{"mesh":6},{"mesh":7},{"mesh":8},{"mesh":9}],
  "meshes": [{"primitives":[{"attributes":{"POSITION":0,"TEXCOORD_0":1},"indices":2,"material":0}]},{"primitives":[{"attributes":{"POSITION":3,"TEXCOORD_0":4},"indices":5,"material":0}]},{"primitives":[{"attributes":{"POSITION":6,"TEXCOORD_0":7},"indices":8,"material":0}]},{"primitives":[{"attributes":{"POSITION":9,"TEXCOORD_0":10},"indices":11,"material":0}]},{"primitives":[{"attributes":{"POSITION":12,"TEXCOORD_0":13},"indices":14,"material":0}]},{"primitives":[{"attributes":{"POSITION":15,"TEXCOORD_0":16},"indices":17,"material":0}]},{"primitives":[{"attributes":{"POSITION":18,"TEXCOORD_0":19},"indices":20,"material":0}]},{"primitives":[{"attributes":{"POSITION":21,"TEXCOORD_0":22},"indices":23,"material":0}]},{"primitives":[{"attributes":{"POSITION":24,"TEXCOORD_0":25},"indices":26,"material":0}]},{"primitives":[{"attributes":{"POSITION":27,"TEXCOORD_0":28},"indices":29,"material":0}]}],
  "materials": [{
    "name" : "unnamed_8",
    "pbrMetallicRoughness": {
      "baseColorTexture": { "index": 0 },
      "metallicFactor": 0.0,
      "roughnessFactor": 1.0
    }
  }],
  "samplers": [{ "magFilter": 9728, "minFilter": 9728 }],
  "textures": [{ "source": 0, "sampler": 0 }],
  "images": [{ "uri": "unnamed_8.png" }],
  "accessors": [{"bufferView":0,"byteOffset":0,"componentType":5126,"count":36,"type":"VEC3","min":[-0.5,0,-0.119373055],"max":[0.5,1,0.119373055]},{"bufferView":1,"byteOffset":0,"componentType":5126,"count":36,"type":"VEC2"},{"bufferView":2,"byteOffset":0,"componentType":5123,"count":36,"type":"SCALAR"},{"bufferView":3,"byteOffset":0,"componentType":5126,"count":36,"type":"VEC3","min":[-1.75,0,-0.119373055],"max":[-0.75,1,0.119373055]},{"bufferView":4,"byteOffset":0,"componentType":5126,"count":36,"type":"VEC2"},{"bufferView":5,"byteOffset":0,"componentType":5123,"count":36,"type":"SCALAR"},{"bufferView":6,"byteOffset":0,"componentType":5126,"count":36,"type":"VEC3","min":[-0.5,0,-1.5],"max":[0.5,0.25,-0.5]},{"bufferView":7,"byteOffset":0,"componentType":5126,"count":36,"type":"VEC2"},{"bufferView":8,"byteOffset":0,"componentType":5123,"count":36,"type":"SCALAR"},{"bufferView":9,"byteOffset":0,"componentType":5126,"count":36,"type":"VEC3","min":[-1.75,0,-1.5],"max":[-0.75,0.25,-0.5]},{"bufferView":10,"byteOffset":0,"componentType":5126,"count":36,"type":"VEC2"},{"bufferView":11,"byteOffset":0,"componentType":5123,"count":36,"type":"SCALAR"},{"bufferView":12,"byteOffset":0,"componentType":5126,"count":36,"type":"VEC3","min":[0.75,0,-1.5],"max":[1.75,0.25,-0.5]},{"bufferView":13,"byteOffset":0,"componentType":5126,"count":36,"type":"VEC2"},{"bufferView":14,"byteOffset":0,"componentType":5123,"count":36,"type":"SCALAR"},{"bufferView":15,"byteOffset":0,"componentType":5126,"count":36,"type":"VEC3","min":[-1.4921875,0,-0.168639991],"max":[-0.9921875,1,-0.0681269455]},{"bufferView":16,"byteOffset":0,"componentType":5126,"count":36,"type":"VEC2"},{"bufferView":17,"byteOffset":0,"componentType":5123,"count":36,"type":"SCALAR"},{"bufferView":18,"byteOffset":0,"componentType":5126,"count":36,"type":"VEC3","min":[-0.25,0,-1.73113999],"max":[0.25,1,-1.63062695]},{"bufferView":19,"byteOffset":0,"componentType":5126,"count":36,"type":"VEC2"},{"bufferView":20,"byteOffset":0,"componentType":5123,"count":36,"type":"SCALAR"},{"bufferView":21,"byteOffset":0,"componentType":5126,"count":36,"type":"VEC3","min":[-1.75,0,-2.75],"max":[-0.75,0.25,-1.75]},{"bufferView":22,"byteOffset":0,"componentType":5126,"count":36,"type":"VEC2"},{"bufferView":23,"byteOffset":0,"componentType":5123,"count":36,"type":"SCALAR"},{"bufferView":24,"byteOffset":0,"componentType":5126,"count":30,"type":"VEC3","min":[0.75,-1.11022302e-16,-0.5],"max":[1.25,1,0.122127586]},{"bufferView":25,"byteOffset":0,"componentType":5126,"count":30,"type":"VEC2"},{"bufferView":26,"byteOffset":0,"componentType":5123,"count":30,"type":"SCALAR"},{"bufferView":27,"byteOffset":0,"componentType":5126,"count":6,"type":"VEC3","min":[0.75,0,-0.481139991],"max":[1.25,1,-0.481139991]},{"bufferView":28,"byteOffset":0,"componentType":5126,"count":6,"type":"VEC2"},{"bufferView":29,"byteOffset":0,"componentType":5123,"count":6,"type":"SCALAR"}],
  "bufferViews": [{"buffer":0,"byteOffset":0,"byteLength":432,"target":34962},{"buffer":0,"byteOffset":432,"byteLength":288,"target":34962},{"buffer":0,"byteOffset":720,"byteLength":72,"target":34963},{"buffer":0,"byteOffset":792,"byteLength":432,"target":34962},{"buffer":0,"byteOffset":1224,"byteLength":288,"target":34962},{"buffer":0,"byteOffset":1512,"byteLength":72,"target":34963},{"buffer":0,"byteOffset":1584,"byteLength":432,"target":34962},{"buffer":0,"byteOffset":2016,"byteLength":288,"target":34962},{"buffer":0,"byteOffset":2304,"byteLength":72,"target":34963},{"buffer":0,"byteOffset":2376,"byteLength":432,"target":34962},{"buffer":0,"byteOffset":2808,"byteLength":288,"target":34962},{"buffer":0,"byteOffset":3096,"byteLength":72,"target":34963},{"buffer":0,"byteOffset":3168,"byteLength":432,"target":34962},{"buffer":0,"byteOffset":3600,"byteLength":288,"target":34962},{"buffer":0,"byteOffset":3888,"byteLength":72,"target":34963},{"buffer":0,"byteOffset":3960,"byteLength":432,"target":34962},{"buffer":0,"byteOffset":4392,"byteLength":288,"target":34962},{"buffer":0,"byteOffset":4680,"byteLength":72,"target":34963},{"buffer":0,"byteOffset":4752,"byteLength":432,"target":34962},{"buffer":0,"byteOffset":5184,"byteLength":288,"target":34962},{"buffer":0,"byteOffset":5472,"byteLength":72,"target":34963},{"buffer":0,"byteOffset":5544,"byteLength":432,"target":34962},{"buffer":0,"byteOffset":5976,"byteLength":288,"target":34962},{"buffer":0,"byteOffset":6264,"byteLength":72,"target":34963},{"buffer":0,"byteOffset":6336,"byteLength":360,"target":34962},{"buffer":0,"byteOffset":6696,"byteLength":240,"target":34962},{"buffer":0,"byteOffset":6936,"byteLength":60,"target":34963},{"buffer":0,"byteOffset":6996,"byteLength":72,"target":34962},{"buffer":0,"byteOffset":7068,"byteLength":48,"target":34962},{"buffer":0,"byteOffset":7116,"byteLength":12,"target":34963}],
  "buffers": [{ "uri": "unnamed_8.bin", "byteLength": 7128 }]
}